<svg width="22" height="14" viewBox="0 0 22 14" fill="none" xmlns="http://www.w3.org/2000/svg">
<path d="M20.0634 4.46965C20.049 4.45306 20.0368 4.43691 20.0198 4.42075L19.2702 3.69742C19.8919 3.55642 20.5611 3.03564 20.5611 2.50133C20.5611 1.87883 19.6972 1.65795 18.9599 1.65795C18.189 1.65795 18.0995 2.18615 18.0903 2.55938L16.1565 0.694958C15.7636 0.306009 15.0184 0 14.4614 0H10.695H10.6941H6.92688C6.3703 0 5.62558 0.306009 5.23227 0.694958L3.29887 2.55938C3.28883 2.18615 3.19934 1.65795 2.4293 1.65795C1.69112 1.65795 0.827664 1.87883 0.827664 2.50133C0.827664 3.03564 1.4973 3.55642 2.11892 3.69742L1.3694 4.42075C1.35237 4.43691 1.34059 4.45306 1.32575 4.46965C0.523838 5.155 0 6.42618 0 7.34857V10.0896C0 10.7548 0.262355 11.3585 0.686227 11.8086V12.8716C0.686227 13.4932 1.20657 14 1.84653 14H3.24954C3.8895 14 4.4094 13.4941 4.4094 12.8716V12.5996H10.6941H10.695H16.9793V12.8716C16.9793 13.4941 17.4988 14 18.1396 14H19.5422C20.1826 14 20.7021 13.4932 20.7021 12.8716V11.8086C21.1264 11.3585 21.3883 10.7548 21.3883 10.0896V7.34857C21.3892 6.42618 20.8653 5.155 20.0634 4.46965ZM5.9425 1.52349C6.21446 1.29693 6.68984 1.12494 6.92688 1.12494H10.6941H10.695H14.4623C14.6993 1.12494 15.1747 1.29693 15.4467 1.52349L17.9825 3.98117H10.695H10.6941H3.40713L5.9425 1.52349ZM0.870007 6.93387C0.870007 6.25899 1.39821 5.71114 2.05039 5.71114C2.70213 5.71114 4.83197 6.96137 4.83197 7.63624C4.83197 8.31112 2.70213 8.15484 2.05039 8.15484C1.39821 8.15484 0.870007 7.60918 0.870007 6.93387ZM4.40984 11.3978H4.18503H3.96021L2.62661 11.4C2.25643 11.2848 1.99539 11.1503 1.81073 11.0058C1.71731 10.9329 1.64572 10.857 1.58985 10.7815C1.53353 10.7051 1.4925 10.63 1.46587 10.5549C1.29999 10.0861 1.64267 9.6552 1.64267 9.6552H3.91874L5.43613 11.397L4.40984 11.3978ZM13.9673 11.3987H10.695H10.6941H7.42191C6.73961 11.3987 6.18565 10.8448 6.18565 10.1629H10.6941H10.695H15.2035C15.2035 10.8456 14.6496 11.3987 13.9673 11.3987ZM14.2545 9.31951H10.695H10.6941H7.13467C6.39257 9.31951 5.79015 8.40454 5.79015 7.27611H10.6941H10.695H15.599C15.599 8.40498 14.9966 9.31951 14.2545 9.31951ZM19.9237 10.5558C19.8967 10.6309 19.8556 10.7059 19.7993 10.7819C19.7439 10.8574 19.6723 10.9334 19.5784 11.0063C19.3942 11.1508 19.1327 11.2861 18.7626 11.4005L17.429 11.3983H17.2041H16.9793H15.9522L17.4704 9.65651H19.7461C19.7461 9.65608 20.0892 10.0861 19.9237 10.5558ZM19.3388 8.15484C18.6875 8.15484 16.5576 8.31025 16.5576 7.63624C16.5576 6.96224 18.6875 5.71114 19.3388 5.71114C19.991 5.71114 20.5192 6.25899 20.5192 6.93387C20.5192 7.60831 19.991 8.15484 19.3388 8.15484Z" fill="black"/>
</svg>
