<svg width="266" height="188" viewBox="0 0 266 188" fill="none" xmlns="http://www.w3.org/2000/svg">
<g clip-path="url(#clip0)">
<path d="M176.644 43.3835C177.517 43.4511 186.348 44.7162 211.441 68.3423C211.441 68.3423 223.544 81.3925 227.292 82.5251C231.037 83.6606 236.799 91.6007 237.956 97.558C237.956 97.561 237.956 97.561 237.959 97.5639C238.024 97.6227 241.419 100.741 241.703 106.64C241.99 112.576 245.998 114.494 238.326 122.267C238.311 122.282 238.287 122.267 238.293 122.249C238.754 121.272 242.086 113.185 230.463 104.939C218.075 96.1489 199.355 108.617 199.05 123.644C199.05 123.652 199.041 123.661 199.032 123.661L89.5494 122.349C89.5434 122.349 89.5405 122.343 89.5405 122.337C89.5614 121.858 90.1113 104.619 69.3672 102.1C69.3672 102.1 54.6692 100.965 50.0577 114.583C50.0577 114.583 47.362 114.659 47.0691 121.167C47.0691 121.175 47.0601 121.184 47.0511 121.184L29.3256 120.54C29.3166 120.54 29.3077 120.534 29.3077 120.522L27.0034 97.8552C27.0034 97.8493 27.0064 97.8434 27.0124 97.8375L29.0118 96.4313C29.0178 96.4284 29.0208 96.4225 29.0208 96.4166C28.9969 96.1018 28.444 88.3617 28.444 85.614C28.444 82.8104 31.325 71.7461 31.325 71.7461C31.325 71.7461 37.9508 46.7843 39.9681 41.9626C41.9824 37.1438 140.948 37.7057 176.477 43.3658C176.53 43.3747 176.587 43.3805 176.644 43.3835Z" fill="#E6E8EA"/>
<path d="M240.337 123.658H197.686C197.686 112.064 207.235 102.665 219.013 102.665C230.788 102.665 240.337 112.064 240.337 123.658Z" fill="#515151"/>
<path d="M89.3038 123.658H46.6532C46.6532 112.064 56.2018 102.665 67.98 102.665C79.7582 102.665 89.3038 112.064 89.3038 123.658Z" fill="#515151"/>
<path d="M219.01 138.453C210.777 138.453 204.103 131.883 204.103 123.779C204.103 115.675 210.777 109.105 219.01 109.105C227.243 109.105 233.918 115.675 233.918 123.779C233.918 131.883 227.243 138.453 219.01 138.453Z" fill="#605E5E" stroke="#515151" stroke-miterlimit="10"/>
<path d="M213.439 124.688C212.927 121.661 215.006 118.798 218.082 118.295C221.158 117.791 224.066 119.838 224.577 122.866C225.089 125.893 223.01 128.756 219.934 129.259C216.858 129.762 213.95 127.716 213.439 124.688Z" fill="#7C7C7C"/>
<path d="M67.9801 138.453C59.747 138.453 53.0728 131.883 53.0728 123.779C53.0728 115.675 59.747 109.105 67.9801 109.105C76.2131 109.105 82.8873 115.675 82.8873 123.779C82.8873 131.883 76.2131 138.453 67.9801 138.453Z" fill="#605E5E" stroke="#515151" stroke-miterlimit="10"/>
<path d="M62.4076 124.684C61.8962 121.657 63.9752 118.794 67.051 118.291C70.1269 117.787 73.0348 119.834 73.5462 122.862C74.0575 125.889 71.9786 128.752 68.9027 129.255C65.8269 129.758 62.9189 127.712 62.4076 124.684Z" fill="#7C7C7C"/>
<path d="M226.473 82.1691L225.496 84.8609L228.248 92.0479L231.001 98.8553H237.277L238.236 97.8522C238.236 97.8522 236.252 91.9831 234.396 89.4178C232.54 86.8525 226.473 82.1691 226.473 82.1691Z" fill="#D3D3D3"/>
<path d="M221.909 93.7806H222.967C223.392 93.7806 223.735 93.4423 223.735 93.0246C223.735 92.6068 223.392 92.2685 222.967 92.2685H221.909C221.485 92.2685 221.141 92.6068 221.141 93.0246C221.141 93.4423 221.485 93.7806 221.909 93.7806Z" fill="white"/>
<path d="M210.603 69.9132V102.665" stroke="#D8D8D8" stroke-width="3" stroke-miterlimit="10" stroke-linecap="round"/>
<path d="M169.832 83.5694H162.555C162.283 83.5694 162.062 83.3517 162.062 83.084V81.666C162.062 81.3983 162.283 81.1806 162.555 81.1806H169.832C170.104 81.1806 170.326 81.3983 170.326 81.666V83.084C170.326 83.3517 170.104 83.5694 169.832 83.5694Z" fill="#B6B6B7"/>
<path d="M163.706 75.3822C163.885 75.4381 164.067 75.4704 164.256 75.4763C172.098 75.7381 179.934 76.1618 187.764 76.6207C191.73 76.8531 195.696 77.0943 199.662 77.3267C201.207 77.4179 202.725 77.5209 204.258 77.7209C205.502 77.8827 207.074 78.1946 208.263 77.6268C208.625 77.4532 208.906 77.1473 209.04 76.7737C209.578 75.2763 209.396 73.5582 208.583 72.1902C207.824 70.9135 206.545 69.9456 206.022 68.557C205.804 67.9775 205.729 67.3509 205.481 66.7801C205.233 66.2094 204.746 65.6769 204.121 65.6387C203.726 65.6152 203.335 65.7887 202.943 65.7328C202.585 65.6828 202.283 65.4475 202.005 65.2151C199.163 62.8557 196.685 60.1021 193.981 57.5897C191.276 55.0774 188.263 52.7739 184.755 51.5589C181.237 50.3439 177.43 50.2939 173.7 50.2586L163.727 50.1645C163.404 50.1615 163.081 50.185 162.767 50.2645C161.243 50.644 161.282 51.7737 161.357 52.7621C161.892 59.7579 162.457 67.0802 162.728 74.1172C162.752 74.7026 163.141 75.2056 163.706 75.3822Z" fill="#B6B6B7"/>
<path d="M163.706 75.3822C163.885 75.4381 164.067 75.4704 164.256 75.4763C172.098 75.7381 179.934 76.1618 187.764 76.6207C191.73 76.8531 195.696 77.0943 199.662 77.3267C201.207 77.4179 202.725 77.5209 204.258 77.7209C205.502 77.8827 207.074 78.1946 208.263 77.6268C208.625 77.4532 208.906 77.1473 209.04 76.7737C209.578 75.2763 209.396 73.5582 208.583 72.1902C207.824 70.9135 206.545 69.9456 206.022 68.557C205.804 67.9775 205.729 67.3509 205.481 66.7801C205.233 66.2094 204.746 65.6769 204.121 65.6387C203.726 65.6152 203.335 65.7887 202.943 65.7328C202.585 65.6828 202.283 65.4475 202.005 65.2151C199.163 62.8557 196.685 60.1021 193.981 57.5897C191.276 55.0774 188.263 52.7739 184.755 51.5589C181.237 50.3439 177.43 50.2939 173.7 50.2586L163.727 50.1645C163.404 50.1615 163.081 50.185 162.767 50.2645C161.243 50.644 161.282 51.7737 161.357 52.7621C161.892 59.7579 162.457 67.0802 162.728 74.1172C162.752 74.7026 163.141 75.2056 163.706 75.3822Z" stroke="#959596" stroke-width="2" stroke-miterlimit="10"/>
<path d="M190.977 69.9132L173.493 55.2951" stroke="white" stroke-width="5" stroke-miterlimit="10" stroke-linecap="round"/>
<path d="M185.337 70.2045L174.115 60.8199" stroke="white" stroke-width="5" stroke-miterlimit="10" stroke-linecap="round"/>
<path d="M151.273 81.1806H143.075" stroke="#D8D8D8" stroke-width="3" stroke-miterlimit="10" stroke-linecap="round"/>
<path d="M151.273 87.1291H143.075" stroke="#D8D8D8" stroke-width="3" stroke-miterlimit="10" stroke-linecap="round"/>
<path d="M145.699 88.7059H147.941C148.225 88.7059 148.452 88.4794 148.452 88.2028V81.1423C148.452 80.8629 148.222 80.6393 147.941 80.6393H145.699C145.415 80.6393 145.188 80.8658 145.188 81.1423V88.2028C145.188 88.4794 145.418 88.7059 145.699 88.7059Z" fill="#B6B6B7"/>
<path d="M156.972 115.436H197.686" stroke="#D8D8D8" stroke-width="3" stroke-miterlimit="10" stroke-linecap="round"/>
<path d="M106.124 70.4251L106.587 70.837C107.113 71.3018 107.798 71.5607 108.503 71.5607H148.485C149.244 71.5607 149.973 71.2636 150.511 70.734L151.049 70.2045" stroke="#D8D8D8" stroke-width="2" stroke-miterlimit="10" stroke-linecap="round"/>
<path d="M47.6305 70.4251L48.0938 70.837C48.6198 71.3018 49.3041 71.5607 50.0095 71.5607H89.9913C90.7504 71.5607 91.4796 71.2636 92.0176 70.734L92.5555 70.2045" stroke="#D8D8D8" stroke-width="2" stroke-miterlimit="10" stroke-linecap="round"/>
<path d="M97.2207 97.8463H50.5354C49.5462 97.8463 48.7422 97.055 48.7422 96.0812C48.7422 95.1074 49.5462 94.3161 50.5354 94.3161H97.2207V97.8463Z" fill="#B6B6B7"/>
<path d="M156.972 45.6487V115.436H97.2208V43.9483" stroke="#D8D8D8" stroke-width="3" stroke-miterlimit="10" stroke-linecap="round"/>
<path d="M44.5133 41.4889C44.5133 41.4889 37.5976 55.2304 34.7794 73.3876" stroke="#B6B6B7" stroke-miterlimit="10"/>
<path d="M31.3216 73.7671C31.3216 73.7671 30.6163 75.1527 30.2338 78.3064C29.8512 81.4601 28.3778 87.4468 29.3999 96.6519H38.2373L36.4441 78.8124L34.3939 73.3906H31.3844L31.3216 73.7671Z" fill="#F4254E"/>
</g>
<defs>
<clipPath id="clip0">
<rect width="216" height="99.9" fill="white" transform="matrix(-1 0 0 1 243 38.7)"/>
</clipPath>
</defs>
</svg>
